<?xml version="1.0" encoding="UTF-8" standalone="no"?>
<!-- Created with Inkscape (http://www.inkscape.org/) -->

<svg
   width="210mm"
   height="297mm"
   viewBox="0 0 210 297"
   version="1.1"
   id="svg1"
   inkscape:version="1.3.2 (1:1.3.2+202311252150+091e20ef0f)"
   sodipodi:docname="auto_reload_logo.svg"
   xml:space="preserve"
   xmlns:inkscape="http://www.inkscape.org/namespaces/inkscape"
   xmlns:sodipodi="http://sodipodi.sourceforge.net/DTD/sodipodi-0.dtd"
   xmlns="http://www.w3.org/2000/svg"
   xmlns:svg="http://www.w3.org/2000/svg"><sodipodi:namedview
     id="namedview1"
     pagecolor="#ffffff"
     bordercolor="#000000"
     borderopacity="0.25"
     inkscape:showpageshadow="2"
     inkscape:pageopacity="0.0"
     inkscape:pagecheckerboard="0"
     inkscape:deskcolor="#d1d1d1"
     inkscape:document-units="mm"
     inkscape:zoom="1.2538538"
     inkscape:cx="298.28038"
     inkscape:cy="725.76243"
     inkscape:window-width="1920"
     inkscape:window-height="1018"
     inkscape:window-x="0"
     inkscape:window-y="0"
     inkscape:window-maximized="1"
     inkscape:current-layer="layer1"
     showguides="true"
     inkscape:export-bgcolor="#ffffff00"><sodipodi:guide
       position="79.99662,182.43244"
       orientation="0,-1"
       id="guide1"
       inkscape:locked="false" /><sodipodi:guide
       position="47.364019,193.83446"
       orientation="0,-1"
       id="guide2"
       inkscape:locked="false" /><sodipodi:guide
       position="93.239585,90.326218"
       orientation="0,-1"
       id="guide4"
       inkscape:locked="false" /></sodipodi:namedview><defs
     id="defs1"><rect
       x="54.944406"
       y="577.22563"
       width="371.82216"
       height="267.89956"
       id="rect2" /><rect
       x="197.14554"
       y="275.45322"
       width="411.72809"
       height="280.98006"
       id="rect1" /><rect
       x="197.14554"
       y="275.45322"
       width="411.72809"
       height="280.98007"
       id="rect1-5" /><rect
       x="54.944405"
       y="577.22565"
       width="371.82217"
       height="267.89957"
       id="rect2-6" /><rect
       x="54.944405"
       y="577.22565"
       width="371.82217"
       height="267.89957"
       id="rect2-6-0" /><rect
       x="54.944405"
       y="577.22565"
       width="371.82217"
       height="267.89957"
       id="rect2-6-0-0" /></defs><g
     inkscape:label="Calque 1"
     inkscape:groupmode="layer"
     id="layer1"><text
       xml:space="preserve"
       transform="matrix(0.26458333,0,0,0.26458333,25.408984,93.073653)"
       id="text2-1-0-0"
       style="font-style:normal;font-variant:normal;font-weight:normal;font-stretch:normal;font-size:213.29px;line-height:0.8;font-family:'URW Gothic';-inkscape-font-specification:'URW Gothic';text-align:end;text-decoration-color:#000000;letter-spacing:0px;word-spacing:-0.177742px;white-space:pre;shape-inside:url(#rect2-6-0-0);display:inline;fill:#b44891;fill-opacity:1;stroke-width:7.55751;stroke-linecap:round;-inkscape-stroke:none;paint-order:stroke fill markers" /><rect
       style="opacity:1;fill:#0b6880;fill-opacity:1;stroke:#0b6880;stroke-width:2.714;stroke-linecap:round;stroke-linejoin:round;stroke-miterlimit:4;stroke-dasharray:none;stroke-dashoffset:0;stroke-opacity:1;paint-order:stroke fill markers"
       id="rect6"
       width="31.233574"
       height="31.233574"
       x="89.431885"
       y="144.43858"
       ry="3.4161952"
       inkscape:export-filename="renderpreset_logo.png"
       inkscape:export-xdpi="191.53999"
       inkscape:export-ydpi="191.53999" /><text
       xml:space="preserve"
       transform="matrix(0.13714424,0,0,0.13714424,72.087282,82.932716)"
       id="text2-1-0"
       style="font-style:normal;font-variant:normal;font-weight:bold;font-stretch:condensed;font-size:51.4462px;line-height:0.8;font-family:'TeX Gyre Heros Cn';-inkscape-font-specification:'TeX Gyre Heros Cn, Bold Condensed';font-variant-ligatures:normal;font-variant-caps:normal;font-variant-numeric:normal;font-variant-east-asian:normal;text-align:center;text-decoration-color:#000000;letter-spacing:4.82308px;word-spacing:-0.177742px;white-space:pre;shape-inside:url(#rect2-6-0);display:inline;fill:#c1f2ff;fill-opacity:1;stroke-width:7.55751;stroke-linecap:round;-inkscape-stroke:none;paint-order:stroke fill markers"
       x="-145.12949"
       y="0"><tspan
         x="174.76654"
         y="612.87878"
         id="tspan2">AUTO</tspan></text><text
       xml:space="preserve"
       style="font-style:normal;font-variant:normal;font-weight:bold;font-stretch:condensed;font-size:7.05556px;line-height:0.8;font-family:'TeX Gyre Heros Cn';-inkscape-font-specification:'TeX Gyre Heros Cn, Bold Condensed';font-variant-ligatures:normal;font-variant-position:normal;font-variant-caps:normal;font-variant-numeric:normal;font-variant-alternates:normal;font-variant-east-asian:normal;text-indent:0;text-align:center;text-decoration-line:none;text-decoration-style:solid;text-decoration-color:#000000;letter-spacing:0.661458px;word-spacing:-0.0343055px;text-transform:none;writing-mode:lr-tb;direction:ltr;text-orientation:mixed;dominant-baseline:auto;baseline-shift:baseline;text-anchor:middle;white-space:normal;opacity:1;vector-effect:none;fill:#c1f2ff;fill-opacity:1;stroke-width:1.45865;stroke-linecap:round;stroke-linejoin:miter;stroke-miterlimit:4;stroke-dasharray:none;stroke-dashoffset:0;stroke-opacity:1;-inkscape-stroke:none;paint-order:stroke fill markers"
       x="118.64382"
       y="173.18729"
       id="text6"><tspan
         sodipodi:role="line"
         id="tspan6"
         style="font-style:normal;font-variant:normal;font-weight:bold;font-stretch:condensed;font-size:7.05556px;font-family:'TeX Gyre Heros Cn';-inkscape-font-specification:'TeX Gyre Heros Cn, Bold Condensed';font-variant-ligatures:normal;font-variant-caps:normal;font-variant-numeric:normal;font-variant-east-asian:normal;text-align:end;letter-spacing:0.661458px;text-anchor:end;fill:#c1f2ff;fill-opacity:1;stroke-width:1.45865"
         x="119.30528"
         y="173.18729">RELOAD</tspan></text><path
       fill="#ffffff"
       d="m 110.63095,146.35867 a 0.42992126,0.42992126 0 0 0 -0.42306,0.43677 v 3.2614 l -1.82284,-1.82028 a 0.42992126,0.42992126 0 0 0 -0.0195,-0.0227 0.01289764,0.01289764 0 0 0 -0.003,-0.003 0.42992126,0.42992126 0 0 0 -0.16086,-0.104 c -1.53911,-1.48581 -3.24158,-2.00516 -5.03865,-1.61222 -1.88047,0.411 -3.425625,1.76526 -4.105775,3.58986 a 0.43014162,0.43014162 0 1 0 0.80654,0.2993 4.8280155,4.8280155 0 0 1 3.482385,-3.04984 c 1.61476,-0.35253 2.97503,0.026 4.40498,1.48149 a 0.42992126,0.42992126 0 0 0 0.002,0.002 0.42992126,0.42992126 0 0 0 0.002,0.002 0.42992126,0.42992126 0 0 0 0.0293,0.026 l 1.81683,1.81859 h -3.26137 a 0.42992126,0.42992126 0 1 0 0,0.85983 h 4.29922 a 0.42992126,0.42992126 0 0 0 0.42992,-0.42992 v -4.29922 a 0.42992126,0.42992126 0 0 0 -0.4368,-0.43677 z m -11.172805,6.87872 a 0.42992126,0.42992126 0 0 0 -0.42992,0.42991 v 4.29923 a 0.42993208,0.42993208 0 1 0 0.85986,0 V 154.706 l 1.822005,1.822 a 0.42992126,0.42992126 0 0 0 0.0195,0.0228 l 0.003,0.002 0.002,0.002 a 0.42992126,0.42992126 0 0 0 0.15989,0.10399 c 1.53911,1.48581 3.24158,2.00516 5.03865,1.61219 1.8805,-0.411 3.42562,-1.76526 4.10577,-3.5907 a 0.43042585,0.43042585 0 1 0 -0.80654,-0.30093 c -0.57953,1.55633 -1.8908,2.70419 -3.48235,3.05244 -1.61567,0.35253 -2.97506,-0.026 -4.40585,-1.48324 a 0.42992126,0.42992126 0 0 0 -0.003,-0.003 l -0.0293,-0.026 -1.81683,-1.81856 h 3.26137 a 0.42992135,0.42992135 0 1 0 0,-0.85983 z"
       id="path1"
       style="fill:#c1f2ff;fill-opacity:1;stroke:#c1f2ff;stroke-width:0.5;stroke-opacity:1;stroke-dasharray:none" /></g></svg>
